<svg height="16" preserveAspectRatio="xMinYMin meet" viewBox="0 0 16 16" width="16" xmlns="http://www.w3.org/2000/svg"><path d="m0 0h15v1h-1v1h-12v12h-1v1h-1z" fill="#fff"/><path d="m15 0h1v1h-1z" fill="#bdbdbd"/><path d="m14 1h1v1h-1z" fill="#bdbdbd"/><path d="m15 1h1v15h-15v-1h1v-1h12v-12h1z" fill="#7b7b7b"/><path d="m2 2h12v12h-12z" fill="#bdbdbd"/><path d="m6 3h4v1h1v3h-1v1h-1v2h-2v-2h1v-1h1v-3h-2v2h-2v-2h1z"/><path d="m7 11h2v2h-2z"/><g fill="#bdbdbd"><path d="m1 14h1v1h-1z"/><path d="m0 15h1v1h-1z"/></g></svg>